<?xml version="1.0" encoding="UTF-8"?>
<svg id="Layer_2" data-name="Layer 2" xmlns="http://www.w3.org/2000/svg" viewBox="0 0 483.21 290.97">
  <defs>
    <style>
      .cls-1 {
        fill: #fff;
      }
    </style>
  </defs>
  <g id="Layer_1-2" data-name="Layer 1">
    <g>
      <path class="cls-1" d="M224.45,161.66c-3.19-3.55-4.78-8.76-4.78-15.64v-16.98c0-1.58-.18-2.85-.54-3.82-.36-.97-.95-1.63-1.77-1.99-.82-.36-1.92-.5-3.28-.43-.36,0-.63-.11-.81-.32-.18-.22-.23-.45-.16-.7.07-.25.14-.41.21-.48,3.15-.64,6.13-1.47,8.92-2.47,2.79-1,5.09-2.15,6.88-3.44.43-.21.84-.23,1.24-.05.39.18.55.41.48.7-.29,3.08-.5,5.64-.65,7.68-.14,2.04-.21,4.42-.21,7.15v15.05c0,5.66.98,9.85,2.96,12.58,1.97,2.72,4.82,4.08,8.54,4.08,2.65,0,4.96-.77,6.93-2.31,1.97-1.54,3.49-3.71,4.57-6.5,1.07-2.79,1.61-6.02,1.61-9.67,0-.64.05-.88.16-.7.11.18.23.57.38,1.18.14.61.21,1.2.21,1.77.14,3.65-.5,7.06-1.93,10.21-1.44,3.15-3.57,5.68-6.4,7.58-2.83,1.9-6.11,2.85-9.83,2.85-5.3,0-9.55-1.77-12.74-5.32ZM254.06,125.22c-.36-.97-.95-1.63-1.77-1.99-.82-.36-1.95-.5-3.39-.43-.29,0-.52-.11-.7-.32-.18-.22-.25-.45-.21-.7.04-.25.09-.41.16-.48,3.15-.64,6.14-1.47,8.97-2.47,2.83-1,5.14-2.15,6.93-3.44.36-.21.73-.23,1.13-.05.39.18.55.41.48.7-.29,3.08-.5,5.64-.64,7.68-.14,2.04-.21,4.42-.21,7.15v22.25c0,2.44.25,4.19.75,5.27.5,1.07,1.36,1.61,2.58,1.61,1.65,0,2.78-.75,3.38-2.26.61-1.5.98-3.58,1.13-6.23,0-.14.09-.27.27-.38.18-.11.38-.05.59.16s.32.54.32.97c0,2.58-.39,4.96-1.18,7.15-.79,2.19-1.97,3.92-3.55,5.21-1.58,1.29-3.44,1.93-5.59,1.93-2.65,0-4.8-.93-6.45-2.79-1.65-1.86-2.47-4.76-2.47-8.71v-26.01c0-1.58-.18-2.85-.54-3.82Z"/>
      <path class="cls-1" d="M287,163.92c-3.19-2.04-5.75-4.93-7.68-8.65-1.94-3.72-2.9-8.02-2.9-12.9s1.13-9.58,3.38-13.7c2.26-4.12,5.25-7.4,8.97-9.83,3.72-2.44,7.77-3.65,12.15-3.65,4.01,0,7.58.95,10.69,2.85,3.12,1.9,5.82,4.71,8.12,8.44.57,1,.77,2.19.59,3.55-.18,1.36-.59,2.81-1.24,4.35-.64,1.54-1.54,3.42-2.69,5.64-.14-3.65-.81-7.18-1.99-10.59-1.18-3.4-2.97-6.2-5.38-8.38-2.4-2.18-5.25-3.28-8.54-3.28-5.09,0-8.87,1.4-11.34,4.19s-3.71,6.84-3.71,12.15c0,4.51.82,8.8,2.47,12.84,1.65,4.05,3.87,7.35,6.66,9.89,2.79,2.54,5.8,3.82,9.03,3.82,2.65,0,4.95-.7,6.88-2.1,1.94-1.4,3.4-3.4,4.41-6.02,1-2.61,1.51-5.79,1.51-9.51.57.86,1.02,2.56,1.34,5.11.32,2.54.45,4.93.38,7.15-.07,2.22-.39,3.48-.97,3.76-.07-.43-.14-.93-.21-1.5-.14-1.43-.36-2.47-.64-3.12-.21-.29-.39-.41-.54-.38-.14.04-.32.23-.54.59-1.93,3.87-4.37,6.9-7.31,9.08-2.94,2.19-6.48,3.28-10.64,3.28-3.65,0-7.08-1.02-10.27-3.06ZM315.7,99.11c-.32-1.11-.77-1.83-1.34-2.15-.57-.32-1.36-.41-2.36-.27-.29-.07-.5-.21-.65-.43-.14-.21-.25-.45-.32-.7-.07-.25-.11-.41-.11-.48,3.29-.79,6.23-1.74,8.81-2.85,2.58-1.11,4.91-2.53,6.98-4.25.36-.07.66-.02.91.16.25.18.34.52.27,1.02-.5,2.36-.82,5.36-.97,8.97-.14,3.62-.21,8.04-.21,13.27v41.7c0,2.44.25,4.19.75,5.27.5,1.07,1.36,1.61,2.58,1.61,1.72,0,2.87-.75,3.44-2.26.57-1.5.93-3.58,1.07-6.23,0-.14.11-.27.32-.38s.41-.05.59.16c.18.21.27.54.27.97,0,2.58-.39,4.96-1.18,7.15-.79,2.19-1.97,3.92-3.54,5.21-1.58,1.29-3.48,1.93-5.7,1.93-2.65,0-4.8-.93-6.45-2.79s-2.47-4.76-2.47-8.71l-.21-50.94c0-2.22-.16-3.89-.48-5Z"/>
      <path class="cls-1" d="M349.72,187.19c-3.65-.65-6.52-1.54-8.6-2.69-2.08-1.15-2.9-2.36-2.47-3.65l3.12-10.96c.07-.21.2-.36.38-.43.18-.07.32-.05.43.05s.12.3.05.59c-.57,4.08-.27,7.29.91,9.62,1.18,2.33,3.26,3.94,6.23,4.84,2.97.9,7.18,1.34,12.63,1.34,4.08,0,7.38-.59,9.89-1.77,2.51-1.18,3.76-3.13,3.76-5.86,0-2.22-1.38-3.87-4.14-4.94-2.76-1.07-6.79-2.15-12.09-3.22-4.23-.72-7.67-1.47-10.32-2.26-2.65-.79-4.82-1.9-6.5-3.33s-2.53-3.29-2.53-5.59c0-1.93.66-3.71,1.99-5.32,1.33-1.61,3.39-3.03,6.18-4.25l1.18.75c-.79.36-1.33.72-1.61,1.07-1.65,1.15-2.47,2.33-2.47,3.55,0,1.29.64,2.35,1.93,3.17,1.29.82,3.22,1.54,5.8,2.15,2.58.61,6.23,1.27,10.96,1.99,4.52.79,8.31,1.63,11.39,2.53,3.08.9,5.53,2.1,7.36,3.6,1.83,1.5,2.74,3.37,2.74,5.59s-.93,4.55-2.79,6.77c-1.86,2.22-4.62,4.05-8.28,5.48-3.65,1.43-8.03,2.15-13.11,2.15-4.37,0-8.38-.32-12.04-.97ZM349.66,151.88c-3.19-1.47-5.73-3.6-7.63-6.4s-2.85-6.09-2.85-9.89c0-3.58,1.06-6.93,3.17-10.05,2.11-3.12,4.93-5.61,8.44-7.47,3.51-1.86,7.34-2.79,11.5-2.79,3.72,0,7.22.82,10.48,2.47,3.26,1.65,5.88,3.91,7.85,6.77,1.97,2.87,2.96,6.02,2.96,9.46s-1.08,6.81-3.22,9.89c-2.15,3.08-5.04,5.55-8.65,7.42-3.62,1.86-7.51,2.79-11.66,2.79-3.73,0-7.18-.73-10.37-2.2ZM372.23,148.23c2.19-1.97,3.28-4.78,3.28-8.44,0-2.87-.84-6.04-2.53-9.51-1.68-3.47-3.81-6.4-6.39-8.76-2.58-2.36-5.16-3.58-7.74-3.65-2.29,0-4.3.45-6.02,1.34-1.72.9-3.08,2.22-4.08,3.98-1,1.76-1.5,3.85-1.5,6.29,0,3.8.81,7.38,2.42,10.75,1.61,3.37,3.71,6.04,6.29,8.01,2.58,1.97,5.2,2.96,7.85,2.96,3.44,0,6.25-.98,8.44-2.96ZM371.96,110.07c1.15-2.33,3.04-4.1,5.7-5.32,1-.43,2.13-.72,3.38-.86,1.25-.14,2.78-.21,4.57-.21.71,0,1.02.68.91,2.04-.11,1.36-.54,2.69-1.29,3.98-.75,1.29-1.67,1.93-2.74,1.93h-1.72c-.5-.07-1.33-.11-2.47-.11-1.65,0-2.99.23-4.03.7-1.04.47-1.72,1.27-2.04,2.42-.32,1.15-.27,2.65.16,4.51l-2.04-1.4c-.07-2.79.46-5.36,1.61-7.69Z"/>
      <path class="cls-1" d="M403.99,163.76c-3.73-2.08-6.72-5.01-8.97-8.81-2.26-3.8-3.38-8.13-3.38-13s1.18-9.55,3.55-13.6c2.37-4.05,5.61-7.25,9.73-9.62,4.12-2.36,8.69-3.55,13.7-3.55,4.08,0,7.67.84,10.75,2.53,3.08,1.68,5.32,4.12,6.72,7.31,1.4,3.19,1.59,6.79.59,10.8-2.01,1.43-4.73,2.69-8.17,3.76s-7.58,1.88-12.41,2.42c-4.84.54-10.16.84-15.96.91l-.64-1.4c3.08-.07,6.04-.22,8.87-.43,2.83-.21,5.43-.54,7.79-.97,2.43-.43,4.53-.93,6.29-1.5,1.75-.57,3.28-1.29,4.57-2.15.72-2.36.55-5.01-.48-7.95-1.04-2.94-2.69-5.46-4.94-7.58-2.26-2.11-4.64-3.17-7.15-3.17-4.59,0-8.12,1.43-10.59,4.3-2.47,2.87-3.71,6.92-3.71,12.15s1.16,9.89,3.49,13.97c2.33,4.08,5.34,7.25,9.03,9.51,3.69,2.26,7.4,3.39,11.12,3.39,2.29-.07,4.62-.5,6.98-1.29,2.37-.79,4.48-2.18,6.34-4.19.14-.14.32-.14.54,0,.21.14.3.39.27.75-.04.36-.2.72-.48,1.08-2.58,3.15-5.68,5.52-9.3,7.09-3.62,1.58-7.54,2.36-11.77,2.36-4.52,0-8.64-1.04-12.36-3.12Z"/>
      <path class="cls-1" d="M454.07,165.42c-1.5-.97-2.67-2.35-3.49-4.14-.82-1.79-1.24-3.94-1.24-6.45v-33.21c0-1.29-.13-2.17-.38-2.63-.25-.47-.88-.7-1.88-.7h-3.44c-.29,0-.5-.12-.64-.38-.14-.25-.11-.5.11-.75.21-.25.5-.38.86-.38,2.29-.36,4.35-1.08,6.18-2.15,1.83-1.07,3.46-2.56,4.89-4.46,1.43-1.9,2.51-4.28,3.22-7.15.36-.72.79-1.07,1.29-1.07.21,0,.36.05.43.16.07.11.11.27.11.48-.07,4.08-.18,8.1-.32,12.04-.07.86.07,1.43.43,1.72.36.29,1,.43,1.93.43h11.07c.14,0,.23.14.27.43.04.29-.02.54-.16.75-.14.21-.39.32-.75.32h-9.89c-1.15,0-1.95.2-2.42.59-.47.39-.7,1.2-.7,2.42v32.03c0,2.87.77,4.94,2.31,6.23,1.54,1.29,3.4,1.58,5.59.86,2.19-.72,4.25-2.33,6.18-4.84.14-.22.34-.27.59-.16.25.11.38.34.38.7s-.21.82-.65,1.4c-2.29,3.15-4.69,5.5-7.2,7.04-2.51,1.54-4.98,2.31-7.42,2.31-2.01,0-3.76-.48-5.27-1.45Z"/>
    </g>
    <path class="cls-1" d="M181.67,153.25c10.82,6.43,19.47,15.08,25.95,25.95,6.48,10.87,9.72,22.89,9.72,36.05s-3.24,25.31-9.72,36.12c-6.48,10.82-15.13,19.47-25.95,25.95-10.82,6.48-22.86,9.72-36.12,9.72H0l13.46-19.15V19.15L0,0h117.13c13.76,0,26.28,3.37,37.55,10.1,11.27,6.73,20.27,15.73,27,27,6.73,11.27,10.1,23.78,10.1,37.55,0,15.56-4.26,29.47-12.79,41.73-8.53,12.27-19.67,21.34-33.43,27.22,13.26,0,25.3,3.22,36.12,9.65ZM50.56,6.28v134.18h72.1c7.98-.4,14.56-3.39,19.75-8.98,6.18-6.78,11.02-14.46,14.51-23.04,3.49-8.58,5.24-17.75,5.24-27.52,0-12.46-2.79-23.93-8.38-34.4-5.59-10.47-13.11-19.15-22.59-26.03-12.86-9.47-27.47-14.21-43.83-14.21h-36.8ZM111.74,280.77c12.56,0,24.06-3.07,34.48-9.2,10.42-6.13,18.72-14.41,24.91-24.83,6.18-10.42,9.27-21.91,9.27-34.48-.9-14.86-5.49-27.92-13.76-39.19-8.28-11.27-19-19.5-32.16-24.68-3.09-1.2-6.33-1.79-9.72-1.79H50.56v134.18h61.18Z"/>
    <g>
      <path class="cls-1" d="M234.85,264.91c-3.19-3.55-4.78-8.76-4.78-15.64v-16.98c0-1.58-.18-2.85-.54-3.82-.36-.97-.95-1.63-1.77-1.99-.82-.36-1.92-.5-3.28-.43-.36,0-.63-.11-.81-.32-.18-.22-.23-.45-.16-.7.07-.25.14-.41.21-.48,3.15-.64,6.13-1.47,8.92-2.47,2.79-1,5.09-2.15,6.88-3.44.43-.21.84-.23,1.24-.05.39.18.55.41.48.7-.29,3.08-.5,5.64-.64,7.68-.14,2.04-.22,4.42-.22,7.15v15.05c0,5.66.98,9.85,2.96,12.57,1.97,2.72,4.82,4.08,8.54,4.08,2.65,0,4.96-.77,6.93-2.31,1.97-1.54,3.49-3.71,4.57-6.5,1.07-2.79,1.61-6.02,1.61-9.67,0-.65.05-.88.16-.7.11.18.23.57.38,1.18.14.61.21,1.2.21,1.77.14,3.65-.5,7.06-1.93,10.21-1.44,3.15-3.57,5.68-6.4,7.58-2.83,1.9-6.11,2.85-9.83,2.85-5.3,0-9.55-1.77-12.73-5.32ZM264.46,228.48c-.36-.97-.95-1.63-1.77-1.99-.82-.36-1.95-.5-3.39-.43-.29,0-.52-.11-.7-.32-.18-.22-.25-.45-.21-.7.04-.25.09-.41.16-.48,3.15-.64,6.14-1.47,8.97-2.47,2.83-1,5.14-2.15,6.93-3.44.36-.21.73-.23,1.13-.05.39.18.55.41.48.7-.29,3.08-.5,5.64-.64,7.68-.14,2.04-.21,4.42-.21,7.15v22.25c0,2.44.25,4.19.75,5.27.5,1.08,1.36,1.61,2.58,1.61,1.65,0,2.78-.75,3.38-2.26.61-1.5.98-3.58,1.13-6.23,0-.14.09-.27.27-.38.18-.11.38-.05.59.16.21.21.32.54.32.97,0,2.58-.39,4.96-1.18,7.15-.79,2.19-1.97,3.92-3.55,5.21-1.58,1.29-3.44,1.93-5.59,1.93-2.65,0-4.8-.93-6.45-2.79-1.65-1.86-2.47-4.76-2.47-8.71v-26.01c0-1.58-.18-2.85-.54-3.82Z"/>
      <path class="cls-1" d="M303.84,267.17c-3.19-2.04-5.75-4.92-7.69-8.65-1.93-3.73-2.9-8.02-2.9-12.9s1.13-9.58,3.38-13.7c2.26-4.12,5.25-7.4,8.97-9.83,3.72-2.44,7.77-3.65,12.14-3.65,4.01,0,7.58.95,10.69,2.85,3.12,1.9,5.82,4.71,8.12,8.44.57,1,.77,2.19.59,3.55-.18,1.36-.59,2.81-1.24,4.35-.64,1.54-1.54,3.42-2.69,5.64-.14-3.65-.81-7.18-1.99-10.59-1.18-3.4-2.97-6.2-5.37-8.38-2.4-2.18-5.25-3.28-8.54-3.28-5.09,0-8.87,1.4-11.34,4.19-2.47,2.79-3.71,6.84-3.71,12.15,0,4.51.82,8.8,2.47,12.84,1.65,4.05,3.87,7.35,6.66,9.89,2.79,2.54,5.8,3.82,9.03,3.82,2.65,0,4.94-.7,6.88-2.1,1.93-1.4,3.4-3.4,4.41-6.02,1-2.61,1.5-5.79,1.5-9.51.57.86,1.02,2.56,1.34,5.11.32,2.54.45,4.93.38,7.15-.07,2.22-.39,3.48-.97,3.76-.07-.43-.14-.93-.21-1.5-.14-1.43-.36-2.47-.64-3.12-.21-.29-.39-.41-.54-.38-.14.04-.32.23-.54.59-1.94,3.87-4.37,6.9-7.31,9.08-2.94,2.18-6.49,3.28-10.64,3.28-3.65,0-7.08-1.02-10.26-3.06ZM332.54,202.36c-.32-1.11-.77-1.83-1.34-2.15-.57-.32-1.36-.41-2.37-.27-.29-.07-.5-.21-.64-.43-.14-.21-.25-.45-.32-.7-.07-.25-.11-.41-.11-.48,3.29-.79,6.23-1.74,8.81-2.85,2.58-1.11,4.91-2.53,6.99-4.25.36-.07.66-.02.91.16.25.18.34.52.27,1.02-.5,2.36-.82,5.36-.97,8.97-.14,3.62-.21,8.04-.21,13.27v41.7c0,2.44.25,4.19.75,5.27.5,1.08,1.36,1.61,2.58,1.61,1.72,0,2.87-.75,3.44-2.26.57-1.5.93-3.58,1.07-6.23,0-.14.11-.27.32-.38.21-.11.41-.05.59.16.18.21.27.54.27.97,0,2.58-.39,4.96-1.18,7.15-.79,2.19-1.97,3.92-3.55,5.21-1.58,1.29-3.48,1.93-5.7,1.93-2.65,0-4.8-.93-6.45-2.79-1.65-1.86-2.47-4.76-2.47-8.71l-.21-50.94c0-2.22-.16-3.89-.48-5Z"/>
      <path class="cls-1" d="M372.2,267.17c-3.19-2.04-5.75-4.92-7.68-8.65-1.94-3.73-2.9-8.02-2.9-12.9s1.13-9.58,3.38-13.7c2.26-4.12,5.25-7.4,8.97-9.83,3.72-2.44,7.77-3.65,12.15-3.65,4.01,0,7.58.95,10.69,2.85,3.12,1.9,5.82,4.71,8.12,8.44.57,1,.77,2.19.59,3.55-.18,1.36-.59,2.81-1.24,4.35-.64,1.54-1.54,3.42-2.69,5.64-.14-3.65-.81-7.18-1.99-10.59-1.18-3.4-2.97-6.2-5.38-8.38-2.4-2.18-5.25-3.28-8.54-3.28-5.09,0-8.87,1.4-11.34,4.19-2.47,2.79-3.71,6.84-3.71,12.15,0,4.51.82,8.8,2.47,12.84,1.65,4.05,3.87,7.35,6.66,9.89,2.79,2.54,5.8,3.82,9.03,3.82,2.65,0,4.95-.7,6.88-2.1,1.94-1.4,3.4-3.4,4.41-6.02,1-2.61,1.51-5.79,1.51-9.51.57.86,1.02,2.56,1.34,5.11.32,2.54.45,4.93.38,7.15-.07,2.22-.39,3.48-.97,3.76-.07-.43-.14-.93-.21-1.5-.14-1.43-.36-2.47-.64-3.12-.21-.29-.39-.41-.54-.38-.14.04-.32.23-.54.59-1.93,3.87-4.37,6.9-7.31,9.08s-6.48,3.28-10.64,3.28c-3.65,0-7.08-1.02-10.27-3.06ZM400.89,202.36c-.32-1.11-.77-1.83-1.34-2.15-.57-.32-1.36-.41-2.36-.27-.29-.07-.5-.21-.65-.43-.14-.21-.25-.45-.32-.7-.07-.25-.11-.41-.11-.48,3.29-.79,6.23-1.74,8.81-2.85,2.58-1.11,4.91-2.53,6.98-4.25.36-.07.66-.02.91.16.25.18.34.52.27,1.02-.5,2.36-.82,5.36-.97,8.97-.14,3.62-.21,8.04-.21,13.27v41.7c0,2.44.25,4.19.75,5.27.5,1.08,1.36,1.61,2.58,1.61,1.72,0,2.87-.75,3.44-2.26.57-1.5.93-3.58,1.07-6.23,0-.14.11-.27.32-.38.21-.11.41-.05.59.16.18.21.27.54.27.97,0,2.58-.39,4.96-1.18,7.15-.79,2.19-1.97,3.92-3.54,5.21-1.58,1.29-3.48,1.93-5.7,1.93-2.65,0-4.8-.93-6.45-2.79s-2.47-4.76-2.47-8.71l-.21-50.94c0-2.22-.16-3.89-.48-5Z"/>
      <path class="cls-1" d="M433.35,290.01c-1.76-.64-3.21-1.56-4.35-2.74s-1.83-2.53-2.04-4.03c-.07-1.15.34-2.51,1.24-4.08.89-1.58,1.86-2.78,2.9-3.6,1.04-.83,1.77-.77,2.2.16-.07,1.5.29,3.21,1.08,5.1.79,1.9,1.84,3.51,3.17,4.84,1.32,1.33,2.81,1.99,4.46,1.99,2.22,0,4.19-.97,5.91-2.9,1.72-1.93,3.55-5.09,5.48-9.46.07-.93-.07-2.06-.43-3.39-.36-1.33-.86-2.81-1.51-4.46,0-1.07.7-1.68,2.1-1.83,1.4-.14,2.67.2,3.82,1.02,1.14.82,1.43,1.88.86,3.17-2.29,5.23-4.41,9.33-6.34,12.31-1.93,2.97-3.91,5.19-5.91,6.66-2.01,1.47-4.34,2.2-6.99,2.2-2.01,0-3.89-.32-5.64-.97ZM448.67,220.04l3.22-.11c.29,0,.47.14.54.43.07.29,0,.54-.22.75-.21.21-.61.32-1.18.32-2.58.07-4.3.75-5.16,2.04-.86,1.29-.75,3.3.32,6.02.07.07.11.18.11.32l13.11,30.31c.14.36.32.56.54.59.21.04.43-.16.64-.59l12.9-30.31c.79-1.93,1.11-3.51.97-4.73-.14-1.22-.72-2.11-1.72-2.69-1-.57-2.33-.9-3.98-.97-.57,0-.99-.12-1.24-.38-.25-.25-.3-.5-.16-.75.14-.25.36-.38.65-.38l3.12.11h9.89l1.94-.11c.07,0,.14.14.21.43.07.29.05.54-.05.75s-.38.32-.81.32c-.93.07-1.76.39-2.47.97-.72.57-1.43,1.43-2.15,2.58-.72,1.15-1.5,2.76-2.36,4.84l-17.09,39.98-1.07.21c-.21.21-.77.14-1.67-.21-.9-.36-1.77-.79-2.63-1.29-.86-.5-1.33-.86-1.4-1.08l-16.12-37.62c-.86-2.08-1.63-3.69-2.31-4.84-.68-1.15-1.38-2-2.1-2.58-.72-.57-1.61-.9-2.69-.97-.29,0-.5-.12-.64-.38-.14-.25-.18-.5-.11-.75.07-.25.18-.38.32-.38l1.94.11h18.92Z"/>
    </g>
  </g>
</svg>